<svg xmlns:xlink="http://www.w3.org/1999/xlink" width="14" height="13" viewBox="0 0 14 13" fill="none" role="presentation" xmlns="http://www.w3.org/2000/svg" aria-label="Job type" aria-hidden="true"><path fill="#595959" fill-rule="evenodd" d="M4.50226.5c-.27614 0-.5.223858-.5.5v2.1H.5c-.276142 0-.5.22386-.5.5v1.9h14V3.6c0-.27614-.2239-.5-.5-.5h-3.4977V1c0-.276142-.22389-.5-.50004-.5h-5Zm4.19962 2.6H5.30344V1.8h3.39844v1.3Z" clip-rule="evenodd"></path><path fill="#595959" d="M5.70117 6.80005H0v5.20005c0 .2761.223857.5.5.5h13c.2761 0 .5-.2239.5-.5V6.80005H8.30117v.80322c0 .27614-.22386.5-.5.5h-1.6c-.27614 0-.5-.22386-.5-.5v-.80322Z"></path></svg>